<svg version="1.1" id="Layer_1" xmlns="http://www.w3.org/2000/svg" xmlns:xlink="http://www.w3.org/1999/xlink" x="0px" y="0px"
	 width="100%" viewBox="0 0 1024 560" enable-background="new 0 0 1024 560" xml:space="preserve">
<path fill="#000000" opacity="1.000000" stroke="none" 
	d="
M503.974365,204.055725 
	C503.935883,192.777832 503.935883,192.777863 514.864929,192.768234 
	C522.192810,192.761780 529.520752,192.753998 536.848633,192.749802 
	C538.180908,192.749039 539.660645,192.381516 540.822083,192.830460 
	C549.666931,196.249390 558.327026,193.651932 567.048279,192.311661 
	C568.949829,192.019455 571.520935,191.486771 572.161194,193.980499 
	C572.777161,196.379761 570.062927,196.568726 568.577209,197.368942 
	C562.313965,200.742203 562.201721,201.062454 566.102600,206.873734 
	C574.813721,219.851028 573.263855,236.528229 562.326416,247.634079 
	C561.411804,248.562775 560.562134,249.555420 559.672974,250.528473 
	C560.842346,252.810242 563.041321,253.463272 564.775757,254.643219 
	C576.348022,262.515808 582.202026,278.029907 578.471375,291.121094 
	C574.205688,306.089752 561.820862,316.157349 546.821228,316.324554 
	C528.670593,316.526917 510.515991,316.389648 492.363220,316.353821 
	C490.819946,316.350800 488.898926,316.821716 488.323303,314.617126 
	C488.398102,313.270416 489.298157,312.766449 490.298615,312.593506 
	C500.252472,310.873291 502.708801,303.164642 503.478516,294.962036 
	C504.237946,286.869141 503.780304,278.662476 503.867462,270.505829 
	C503.889648,268.426636 503.103394,266.991516 500.944336,266.485931 
	C476.455139,260.751495 466.764984,243.114868 463.848358,220.149033 
	C462.535339,209.809662 460.037109,200.384171 448.698181,196.523788 
	C447.513458,196.120468 446.580261,195.216248 447.157959,193.851974 
	C447.869080,192.172684 449.647278,192.232468 451.050323,192.223862 
	C462.221313,192.155426 471.517639,196.167770 478.329041,205.238083 
	C482.625183,210.959000 484.593628,217.691132 486.236115,224.504517 
	C488.029602,231.944000 489.684509,239.421036 492.595490,246.526489 
	C494.840607,252.006653 498.470001,256.511932 503.975342,261.614471 
	C503.975342,241.807678 503.975342,223.176605 503.974365,204.055725 
M523.178406,278.750549 
	C518.198547,289.978333 517.572815,303.259552 506.625488,312.090424 
	C514.274353,312.090424 521.083923,312.103912 527.893372,312.086639 
	C534.712280,312.069366 541.554016,312.365936 548.344910,311.912994 
	C561.276367,311.050507 572.517639,300.752289 574.656555,288.336151 
	C577.035583,274.525635 569.925293,260.742737 557.659241,255.404968 
	C555.974548,254.671860 554.226562,253.791550 552.392029,254.687607 
	C540.971191,260.265930 529.530151,265.841248 523.178406,278.750549 
M508.291809,282.483246 
	C508.646454,290.321625 507.550140,298.011902 505.338654,306.448273 
	C510.623901,302.980927 512.154114,298.163208 513.650085,293.559448 
	C518.792236,277.734680 523.362671,261.738312 527.712585,245.672913 
	C532.101746,229.462753 534.163452,212.285034 546.214050,198.857742 
	C544.303589,197.099136 541.917786,197.230743 539.650269,197.212540 
	C531.154602,197.144302 522.650940,197.370850 514.165039,197.070892 
	C509.611389,196.909943 508.140961,198.376312 508.177460,203.024185 
	C508.382935,229.177551 508.285187,255.333313 508.291809,282.483246 
M543.256714,244.740326 
	C546.655151,239.495712 548.718262,233.764191 549.823975,227.615723 
	C551.678162,217.305237 551.460999,206.303284 560.916443,197.263077 
	C549.835083,200.317032 543.489868,206.720673 540.644348,215.578201 
	C535.368103,232.001938 531.105225,248.751236 526.420349,265.364960 
	C533.786072,258.438293 542.846863,254.860931 551.324219,250.409668 
	C559.869690,245.922684 565.309937,239.221130 567.145081,229.783249 
	C568.880005,220.860840 565.806824,213.336929 560.368652,206.468231 
	C557.910828,207.744858 557.503662,209.607239 557.134155,211.347366 
	C556.099121,216.221634 555.056641,221.104446 554.315857,226.028809 
	C553.057251,234.395401 550.563477,242.246658 545.389465,249.053833 
	C543.850708,251.078354 542.206604,253.309372 538.971924,251.903748 
	C539.121704,248.742233 541.657776,247.447983 543.256714,244.740326 
M467.187866,213.662766 
	C467.934296,218.418137 468.410187,223.235153 469.477356,227.917419 
	C472.812805,242.552170 479.889771,254.312347 495.985535,260.393707 
	C490.304565,252.884354 487.119873,245.464371 484.987701,237.598129 
	C483.466553,231.986343 482.276581,226.283859 480.716187,220.683868 
	C478.428497,212.473740 474.664001,205.170334 467.049774,200.564407 
	C465.363861,199.544556 463.675873,198.132706 461.195557,198.745041 
	C462.600586,201.310654 463.991150,203.400787 464.923553,205.678467 
	C465.860229,207.966614 466.340515,210.441574 467.187866,213.662766 
z"/>
<path fill="#000000" opacity="1.000000" stroke="none" 
	d="
M473.748596,351.723816 
	C468.714050,350.100189 467.276672,350.894867 467.087006,355.700256 
	C466.926270,359.772552 466.448517,363.961029 469.242340,367.803711 
	C465.878296,369.491272 462.941101,369.330963 459.701599,367.982025 
	C461.995392,361.403809 463.248871,354.930786 458.791382,347.567352 
	C467.917114,346.027130 476.737335,345.574524 486.371521,346.519928 
	C483.416962,352.088837 486.371216,355.858459 488.759216,360.631165 
	C490.959778,355.870087 493.345093,351.988983 491.483948,347.166901 
	C494.044769,345.654175 496.323608,345.639557 498.959686,347.455383 
	C494.222290,355.526306 492.065948,364.574219 488.644257,373.136078 
	C487.842316,375.142731 486.806671,377.079285 485.158051,378.556030 
	C483.533783,380.010925 481.709808,380.601471 479.701874,379.304413 
	C478.512573,378.536163 477.536530,377.398010 478.120056,375.980042 
	C479.233826,373.273621 481.427338,374.722870 483.211517,374.994659 
	C486.756073,371.507111 486.702728,367.949249 484.325928,363.770111 
	C481.876526,359.463287 480.044952,354.805115 478.031067,350.489258 
	C476.163239,349.991730 475.413239,351.680878 473.748596,351.723816 
z"/>
<path fill="#000000" opacity="1.000000" stroke="none" 
	d="
M535.553955,344.481903 
	C535.738953,342.072296 533.741699,341.067535 533.055908,339.496552 
	C537.395874,336.674988 548.667175,336.997986 552.009705,340.073944 
	C555.919495,343.671875 554.621277,347.496552 552.067627,351.172607 
	C552.142151,351.555847 552.090759,352.004089 552.280579,352.161530 
	C555.582642,354.900177 557.774170,358.211639 556.199158,362.583832 
	C554.509888,367.273499 550.396545,368.916199 545.835876,368.945831 
	C541.659485,368.973022 537.307312,369.851624 533.079895,368.032867 
	C537.701355,360.387787 534.866638,352.448181 535.553955,344.481903 
M550.806030,360.359344 
	C550.939575,356.408203 548.786316,354.584320 545.077576,354.281921 
	C543.117310,354.122070 541.045959,354.370575 541.152283,356.875549 
	C541.276489,359.801575 539.204285,363.806671 542.967224,365.336853 
	C546.033325,366.583618 549.200012,365.179108 550.634766,361.610718 
	C550.695740,361.458954 550.702881,361.285522 550.806030,360.359344 
M548.530334,344.027283 
	C547.396179,341.426422 545.135803,340.562622 542.832520,341.564941 
	C539.880859,342.849365 541.242126,345.876038 541.166077,348.199097 
	C541.105347,350.053040 542.385803,350.832397 544.141418,350.627014 
	C546.992859,350.293488 548.606140,348.698273 548.751892,345.762848 
	C548.768188,345.435242 548.719727,345.104401 548.530334,344.027283 
z"/>
<path fill="#000000" opacity="1.000000" stroke="none" 
	d="
M642.648071,362.400146 
	C641.858032,354.052002 644.713196,345.804626 640.459778,337.889648 
	C642.023987,336.007233 644.563171,336.764313 646.662598,335.948456 
	C649.416565,338.969696 647.036865,342.973755 648.799805,345.872528 
	C650.300171,346.664825 651.571716,345.882172 652.867004,345.796967 
	C657.743408,345.476227 660.299072,347.389893 661.452271,352.149475 
	C662.127563,354.936737 662.297974,357.761963 662.067078,360.581848 
	C661.854858,363.173309 662.766052,365.379456 664.213745,367.632233 
	C661.032837,369.585175 658.162842,369.451660 654.810059,367.892517 
	C657.426392,363.238464 656.996643,358.461090 656.263000,353.735992 
	C655.929199,351.586304 654.980225,349.318085 652.161499,349.588501 
	C649.461304,349.847473 647.990540,351.581390 648.132507,354.355103 
	C648.357117,358.744537 647.068176,363.348358 650.164551,367.460632 
	C647.175659,369.778381 644.301208,369.349670 641.395752,368.165192 
	C640.540405,365.901794 643.007385,364.726929 642.648071,362.400146 
z"/>
<path fill="#000000" opacity="1.000000" stroke="none" 
	d="
M381.838135,357.714996 
	C379.837280,361.650055 379.759216,366.090942 376.203369,369.783813 
	C369.400757,360.085236 367.719696,348.528503 360.965515,338.886505 
	C364.640442,337.038940 368.129364,337.468506 371.803802,338.488434 
	C368.546753,346.512268 374.148132,352.027649 376.697266,358.457458 
	C379.061127,352.004272 384.473633,346.461761 381.673828,338.520538 
	C384.657623,337.398285 387.521851,337.067261 390.815582,339.089966 
	C385.543091,344.274658 384.644745,351.215790 381.838135,357.714996 
z"/>
<path fill="#000000" opacity="1.000000" stroke="none" 
	d="
M444.359528,345.869781 
	C453.065552,345.969849 458.030609,351.201813 457.232300,358.947174 
	C456.532501,365.736694 450.604584,370.313599 443.960724,369.194092 
	C438.919922,368.344696 435.179901,364.131409 434.783752,358.855774 
	C434.311066,352.561707 437.484283,348.082855 444.359528,345.869781 
M445.773468,365.772308 
	C450.487640,365.972992 451.071503,362.256775 451.436890,359.101288 
	C451.860474,355.443756 451.193542,351.632446 447.458893,349.675873 
	C444.965271,348.369476 443.022980,349.747284 441.778961,352.071228 
	C439.280701,356.738373 440.574677,362.052795 445.773468,365.772308 
z"/>
<path fill="#000000" opacity="1.000000" stroke="none" 
	d="
M567.946533,349.235931 
	C565.753418,349.203705 565.072876,350.505676 564.368774,351.893494 
	C563.618713,353.372009 562.323425,354.441864 560.775024,353.317352 
	C559.141357,352.130920 559.412659,350.297089 560.648621,348.919739 
	C563.351501,345.907745 566.929626,345.214722 570.700989,345.973297 
	C574.267578,346.690704 575.949829,349.339752 576.228394,352.801849 
	C576.428040,355.282928 576.539246,357.814606 576.271729,360.278290 
	C575.964905,363.104279 576.787903,365.359650 578.846130,367.041260 
	C577.864502,368.758362 576.429749,369.057739 575.188904,368.717834 
	C572.355713,367.941772 569.773865,368.439941 566.974060,369.076813 
	C563.547607,369.856262 560.070557,369.069336 558.822937,365.165863 
	C557.501770,361.032349 559.907410,358.548370 563.459778,356.987518 
	C564.669373,356.456055 565.964966,356.071289 567.258606,355.793304 
	C568.739502,355.475037 570.359070,355.415314 570.691833,353.514435 
	C571.043335,351.506622 570.591614,349.852692 567.946533,349.235931 
M570.305847,363.587402 
	C570.908813,362.033539 571.382507,360.487610 569.788147,358.722443 
	C567.529114,359.250732 565.195740,359.778442 564.088379,362.397614 
	C563.648987,363.436920 564.042419,364.362244 564.946472,364.959045 
	C566.804199,366.185394 568.363770,365.303650 570.305847,363.587402 
z"/>
<path fill="#000000" opacity="1.000000" stroke="none" 
	d="
M510.524536,368.292389 
	C508.503998,369.416718 506.663696,369.398895 504.840668,369.220337 
	C502.303253,368.971741 500.530884,367.624573 499.640472,365.198822 
	C498.705902,362.652771 499.704407,360.609711 501.494995,358.923676 
	C503.621979,356.920868 506.286621,356.011292 509.152374,355.640411 
	C510.921021,355.411499 511.786896,354.376282 511.762299,352.604095 
	C511.739349,350.951630 511.140198,349.654114 509.386078,349.272522 
	C507.781647,348.923462 506.308746,349.260132 505.629578,350.896759 
	C505.033447,352.333344 504.572968,353.795288 502.657928,353.669647 
	C501.527527,353.595459 500.908813,352.844147 500.800629,351.706238 
	C500.619598,349.802155 501.668518,348.537811 503.109924,347.589600 
	C506.227936,345.538452 509.634766,345.032043 513.082153,346.483307 
	C516.443359,347.898376 517.233459,350.836639 517.308044,354.255463 
	C517.528931,364.381165 517.609253,364.489502 519.570984,367.496979 
	C516.906616,370.925873 513.703247,367.206360 510.524536,368.292389 
M507.434235,359.868134 
	C505.839294,361.036621 503.886749,362.196930 505.525757,364.520966 
	C506.504730,365.909119 508.053040,365.668854 509.521790,364.979187 
	C511.700806,363.955994 512.241638,362.078766 511.652649,360.085541 
	C510.982086,357.816528 509.308807,359.285736 507.434235,359.868134 
z"/>
<path fill="#000000" opacity="1.000000" stroke="none" 
	d="
M618.378479,356.885803 
	C616.461609,356.934204 614.961182,356.869904 613.476135,356.992310 
	C611.189819,357.180725 607.813232,356.209473 608.568115,360.435211 
	C609.195435,363.946838 611.321838,366.288330 615.205017,365.450958 
	C617.384338,364.981018 619.392151,363.715912 621.471985,362.811310 
	C623.219299,364.993958 621.595276,366.034149 620.412659,367.040436 
	C616.630554,370.258514 609.986633,370.174713 606.091492,366.943909 
	C601.883667,363.453613 600.718750,357.220001 603.293457,351.971222 
	C605.620850,347.226898 610.816895,344.704529 615.718262,346.012604 
	C618.617310,346.786316 620.743164,348.574036 621.866760,351.371277 
	C623.077576,354.385315 622.678345,356.624786 618.378479,356.885803 
M608.908203,352.479218 
	C611.405090,354.566132 613.821777,353.829315 616.345703,352.513885 
	C613.951294,348.071655 612.323547,347.975372 608.908203,352.479218 
z"/>
<path fill="#000000" opacity="1.000000" stroke="none" 
	d="
M595.537292,345.975342 
	C600.028809,346.524048 599.564697,348.634827 597.745972,351.145264 
	C594.470886,355.665833 591.158386,360.159241 587.627563,364.983551 
	C592.995667,366.719604 596.144897,365.060211 597.895264,359.841095 
	C600.365356,362.295197 600.357544,364.700470 599.549438,367.021729 
	C598.711426,369.428680 596.348755,368.984100 594.403015,369.049957 
	C592.409485,369.117493 590.403076,369.176361 588.418091,369.027832 
	C585.890991,368.838684 582.500000,370.246063 581.179138,367.344696 
	C580.019104,364.796570 582.875793,362.946106 584.301758,360.994324 
	C586.926208,357.402039 589.657837,353.888062 592.491272,350.148102 
	C587.483948,348.102600 585.000366,350.572601 583.084717,354.905273 
	C581.024292,352.527985 580.930603,350.281494 581.551941,348.115906 
	C582.284973,345.561066 584.727600,346.123230 586.616211,346.024048 
	C589.436462,345.876007 592.269226,345.964478 595.537292,345.975342 
z"/>
<path fill="#000000" opacity="1.000000" stroke="none" 
	d="
M403.520508,345.674133 
	C405.842865,344.334320 406.231171,341.517822 409.118164,340.332306 
	C409.523956,344.964111 413.106110,346.305115 417.522583,347.324554 
	C410.090118,351.731323 410.090088,351.731323 410.185974,359.123810 
	C410.265656,365.270752 410.718689,365.620697 417.004761,364.093323 
	C417.908752,367.502808 415.425446,368.453674 413.170105,369.039459 
	C410.010071,369.860229 407.260071,368.988403 405.626770,365.827057 
	C404.421509,363.494293 404.876953,360.967590 404.678070,358.509491 
	C404.397125,355.037323 405.843170,351.192261 402.267792,348.383362 
	C401.500793,347.780823 402.444611,346.567322 403.520508,345.674133 
z"/>
<path fill="#000000" opacity="1.000000" stroke="none" 
	d="
M420.719360,353.550781 
	C421.148560,350.810455 419.206879,349.657623 418.162537,348.160034 
	C418.526550,345.971832 420.573822,345.396423 421.680328,344.015991 
	C422.638214,342.820953 422.814362,340.733978 425.486511,340.768158 
	C425.181061,345.630005 429.906647,345.769806 432.777649,347.422852 
	C432.010620,349.510712 430.718048,349.393066 429.620605,349.402313 
	C426.978760,349.424591 426.199554,350.877502 426.296478,353.248291 
	C426.370880,355.067963 426.284821,356.893616 426.301483,358.716339 
	C426.361877,365.324310 426.715149,365.610626 433.227570,364.123016 
	C434.019501,367.484161 431.594208,368.495850 429.335358,369.059021 
	C425.910004,369.913055 423.093109,368.767334 421.642365,365.292267 
	C420.114014,361.631226 420.985321,357.755371 420.719360,353.550781 
z"/>
<path fill="#000000" opacity="1.000000" stroke="none" 
	d="
M631.014526,340.879730 
	C631.941528,345.043915 635.146484,346.377167 638.578979,346.981720 
	C638.238647,348.043457 638.230164,348.436218 638.029602,348.637482 
	C636.463135,350.208954 632.805176,348.311371 632.461487,351.672028 
	C632.058838,355.608887 631.531738,359.689240 632.989746,363.490570 
	C634.330994,366.987427 637.077026,363.413544 639.309998,364.385498 
	C639.621033,367.904419 637.041809,368.685211 634.463135,369.160797 
	C631.290039,369.746094 628.973083,368.343140 627.646118,365.410675 
	C626.287964,362.409210 626.879028,359.199310 626.747253,356.069977 
	C626.618530,353.012329 627.718384,349.575562 622.918213,347.977478 
	C626.578003,345.648163 627.669250,342.277222 631.014526,340.879730 
z"/>
<path fill="#000000" opacity="1.000000" stroke="none" 
	d="
M392.467560,364.831970 
	C392.748016,359.096649 394.225586,353.594574 390.851410,348.529144 
	C392.405334,346.129608 394.912079,346.015076 396.975677,346.665955 
	C399.105988,347.337891 398.139191,349.798462 398.335358,351.515778 
	C398.940125,356.810486 396.793365,362.453827 400.579315,367.488129 
	C398.092072,369.800903 395.273376,369.184143 392.673706,368.440369 
	C390.800171,367.904327 391.615814,366.390015 392.467560,364.831970 
z"/>
<path fill="#000000" opacity="1.000000" stroke="none" 
	d="
M393.350159,341.439392 
	C392.547119,338.718536 393.382782,337.051300 395.909454,337.178009 
	C397.880157,337.276855 398.700714,339.005646 398.030823,340.778107 
	C397.163361,343.073212 395.559967,343.736359 393.350159,341.439392 
z"/>
</svg>